<mxfile host="app.diagrams.net" modified="2024-07-09T09:53:05.092Z" agent="Mozilla/5.0 (Macintosh; Intel Mac OS X 10.15; rv:127.0) Gecko/20100101 Firefox/127.0" etag="7iE9m4A3DIYqF-MnM2gn" version="24.5.1" type="github">
  <diagram name="Page-1" id="HHlRipr4qepK0YWwnN1N">
    <mxGraphModel dx="1306" dy="697" grid="1" gridSize="10" guides="1" tooltips="1" connect="1" arrows="1" fold="1" page="1" pageScale="1" pageWidth="1169" pageHeight="827" math="0" shadow="0">
      <root>
        <mxCell id="0" />
        <mxCell id="1" parent="0" />
        <mxCell id="FvPew6l_nvyuefZTjxA9-30" value="" style="rounded=0;whiteSpace=wrap;html=1;dashed=1;" vertex="1" parent="1">
          <mxGeometry x="980" y="60" width="120" height="230" as="geometry" />
        </mxCell>
        <mxCell id="FvPew6l_nvyuefZTjxA9-25" value="" style="rounded=0;whiteSpace=wrap;html=1;dashed=1;" vertex="1" parent="1">
          <mxGeometry x="980" y="540" width="120" height="250" as="geometry" />
        </mxCell>
        <mxCell id="FvPew6l_nvyuefZTjxA9-24" value="" style="rounded=0;whiteSpace=wrap;html=1;dashed=1;" vertex="1" parent="1">
          <mxGeometry x="419" y="470" width="120" height="250" as="geometry" />
        </mxCell>
        <mxCell id="FvPew6l_nvyuefZTjxA9-23" value="" style="rounded=0;whiteSpace=wrap;html=1;dashed=1;" vertex="1" parent="1">
          <mxGeometry x="139" y="460" width="120" height="250" as="geometry" />
        </mxCell>
        <mxCell id="FvPew6l_nvyuefZTjxA9-3" value="&lt;font color=&quot;#dea000&quot;&gt;Comms-Care Interview2 Demo&lt;/font&gt;" style="sketch=0;outlineConnect=0;gradientColor=none;html=1;whiteSpace=wrap;fontSize=12;fontStyle=0;shape=mxgraph.aws4.group;grIcon=mxgraph.aws4.group_aws_cloud;strokeColor=#AAB7B8;fillColor=none;verticalAlign=top;align=left;spacingLeft=30;fontColor=#AAB7B8;dashed=0;" vertex="1" parent="1">
          <mxGeometry x="40" y="40" width="1080" height="760" as="geometry" />
        </mxCell>
        <mxCell id="FvPew6l_nvyuefZTjxA9-5" value="Management/Root" style="sketch=0;outlineConnect=0;fontColor=#232F3E;gradientColor=none;fillColor=#E7157B;strokeColor=none;dashed=0;verticalLabelPosition=bottom;verticalAlign=top;align=center;html=1;fontSize=12;fontStyle=0;aspect=fixed;pointerEvents=1;shape=mxgraph.aws4.organizations_management_account2;" vertex="1" parent="1">
          <mxGeometry x="446" y="80" width="78" height="78" as="geometry" />
        </mxCell>
        <mxCell id="FvPew6l_nvyuefZTjxA9-6" value="Security" style="sketch=0;outlineConnect=0;fontColor=#232F3E;gradientColor=none;fillColor=#E7157B;strokeColor=none;dashed=0;verticalLabelPosition=bottom;verticalAlign=top;align=center;html=1;fontSize=12;fontStyle=0;aspect=fixed;pointerEvents=1;shape=mxgraph.aws4.organizations_organizational_unit2;" vertex="1" parent="1">
          <mxGeometry x="160" y="280" width="78" height="78" as="geometry" />
        </mxCell>
        <mxCell id="FvPew6l_nvyuefZTjxA9-7" value="Workloads" style="sketch=0;outlineConnect=0;fontColor=#232F3E;gradientColor=none;fillColor=#E7157B;strokeColor=none;dashed=0;verticalLabelPosition=bottom;verticalAlign=top;align=center;html=1;fontSize=12;fontStyle=0;aspect=fixed;pointerEvents=1;shape=mxgraph.aws4.organizations_organizational_unit2;" vertex="1" parent="1">
          <mxGeometry x="830" y="280" width="78" height="78" as="geometry" />
        </mxCell>
        <mxCell id="FvPew6l_nvyuefZTjxA9-32" style="edgeStyle=orthogonalEdgeStyle;rounded=0;orthogonalLoop=1;jettySize=auto;html=1;" edge="1" parent="1" source="FvPew6l_nvyuefZTjxA9-8" target="FvPew6l_nvyuefZTjxA9-5">
          <mxGeometry relative="1" as="geometry" />
        </mxCell>
        <mxCell id="FvPew6l_nvyuefZTjxA9-8" value="Infrastructure" style="sketch=0;outlineConnect=0;fontColor=#232F3E;gradientColor=none;fillColor=#E7157B;strokeColor=none;dashed=0;verticalLabelPosition=bottom;verticalAlign=top;align=center;html=1;fontSize=12;fontStyle=0;aspect=fixed;pointerEvents=1;shape=mxgraph.aws4.organizations_organizational_unit2;" vertex="1" parent="1">
          <mxGeometry x="440" y="280" width="90" height="90" as="geometry" />
        </mxCell>
        <mxCell id="FvPew6l_nvyuefZTjxA9-10" value="Prod" style="sketch=0;outlineConnect=0;fontColor=#232F3E;gradientColor=none;fillColor=#E7157B;strokeColor=none;dashed=0;verticalLabelPosition=bottom;verticalAlign=top;align=center;html=1;fontSize=12;fontStyle=0;aspect=fixed;pointerEvents=1;shape=mxgraph.aws4.organizations_organizational_unit2;" vertex="1" parent="1">
          <mxGeometry x="660" y="424" width="78" height="78" as="geometry" />
        </mxCell>
        <mxCell id="FvPew6l_nvyuefZTjxA9-39" style="edgeStyle=orthogonalEdgeStyle;rounded=0;orthogonalLoop=1;jettySize=auto;html=1;" edge="1" parent="1" source="FvPew6l_nvyuefZTjxA9-11" target="FvPew6l_nvyuefZTjxA9-7">
          <mxGeometry relative="1" as="geometry" />
        </mxCell>
        <mxCell id="FvPew6l_nvyuefZTjxA9-11" value="Staging" style="sketch=0;outlineConnect=0;fontColor=#232F3E;gradientColor=none;fillColor=#E7157B;strokeColor=none;dashed=0;verticalLabelPosition=bottom;verticalAlign=top;align=center;html=1;fontSize=12;fontStyle=0;aspect=fixed;pointerEvents=1;shape=mxgraph.aws4.organizations_organizational_unit2;" vertex="1" parent="1">
          <mxGeometry x="830" y="424" width="78" height="78" as="geometry" />
        </mxCell>
        <mxCell id="FvPew6l_nvyuefZTjxA9-12" value="Dev" style="sketch=0;outlineConnect=0;fontColor=#232F3E;gradientColor=none;fillColor=#E7157B;strokeColor=none;dashed=0;verticalLabelPosition=bottom;verticalAlign=top;align=center;html=1;fontSize=12;fontStyle=0;aspect=fixed;pointerEvents=1;shape=mxgraph.aws4.organizations_organizational_unit2;" vertex="1" parent="1">
          <mxGeometry x="998" y="426" width="78" height="78" as="geometry" />
        </mxCell>
        <mxCell id="FvPew6l_nvyuefZTjxA9-13" value="LogArchive" style="sketch=0;outlineConnect=0;fontColor=#232F3E;gradientColor=none;fillColor=#DD344C;strokeColor=none;dashed=0;verticalLabelPosition=bottom;verticalAlign=top;align=center;html=1;fontSize=12;fontStyle=0;aspect=fixed;pointerEvents=1;shape=mxgraph.aws4.organizations_account;" vertex="1" parent="1">
          <mxGeometry x="160" y="480" width="74" height="78" as="geometry" />
        </mxCell>
        <mxCell id="FvPew6l_nvyuefZTjxA9-14" value="Audit" style="sketch=0;outlineConnect=0;fontColor=#232F3E;gradientColor=none;fillColor=#DD344C;strokeColor=none;dashed=0;verticalLabelPosition=bottom;verticalAlign=top;align=center;html=1;fontSize=12;fontStyle=0;aspect=fixed;pointerEvents=1;shape=mxgraph.aws4.organizations_account;" vertex="1" parent="1">
          <mxGeometry x="164" y="607" width="74" height="78" as="geometry" />
        </mxCell>
        <mxCell id="FvPew6l_nvyuefZTjxA9-16" value="Shared Services" style="sketch=0;outlineConnect=0;fontColor=#232F3E;gradientColor=none;fillColor=#DD344C;strokeColor=none;dashed=0;verticalLabelPosition=bottom;verticalAlign=top;align=center;html=1;fontSize=12;fontStyle=0;aspect=fixed;pointerEvents=1;shape=mxgraph.aws4.organizations_account;" vertex="1" parent="1">
          <mxGeometry x="444" y="620" width="74" height="78" as="geometry" />
        </mxCell>
        <mxCell id="FvPew6l_nvyuefZTjxA9-17" value="Network" style="sketch=0;outlineConnect=0;fontColor=#232F3E;gradientColor=none;fillColor=#DD344C;strokeColor=none;dashed=0;verticalLabelPosition=bottom;verticalAlign=top;align=center;html=1;fontSize=12;fontStyle=0;aspect=fixed;pointerEvents=1;shape=mxgraph.aws4.organizations_account;" vertex="1" parent="1">
          <mxGeometry x="444" y="480" width="74" height="78" as="geometry" />
        </mxCell>
        <mxCell id="FvPew6l_nvyuefZTjxA9-34" style="edgeStyle=orthogonalEdgeStyle;rounded=0;orthogonalLoop=1;jettySize=auto;html=1;" edge="1" parent="1" source="FvPew6l_nvyuefZTjxA9-18" target="FvPew6l_nvyuefZTjxA9-10">
          <mxGeometry relative="1" as="geometry" />
        </mxCell>
        <mxCell id="FvPew6l_nvyuefZTjxA9-18" value="Workload-Prod" style="sketch=0;outlineConnect=0;fontColor=#232F3E;gradientColor=none;fillColor=#DD344C;strokeColor=none;dashed=0;verticalLabelPosition=bottom;verticalAlign=top;align=center;html=1;fontSize=12;fontStyle=0;aspect=fixed;pointerEvents=1;shape=mxgraph.aws4.organizations_account;" vertex="1" parent="1">
          <mxGeometry x="662" y="600" width="74" height="78" as="geometry" />
        </mxCell>
        <mxCell id="FvPew6l_nvyuefZTjxA9-35" style="edgeStyle=orthogonalEdgeStyle;rounded=0;orthogonalLoop=1;jettySize=auto;html=1;" edge="1" parent="1" source="FvPew6l_nvyuefZTjxA9-19" target="FvPew6l_nvyuefZTjxA9-11">
          <mxGeometry relative="1" as="geometry" />
        </mxCell>
        <mxCell id="FvPew6l_nvyuefZTjxA9-19" value="Workload-Staging" style="sketch=0;outlineConnect=0;fontColor=#232F3E;gradientColor=none;fillColor=#DD344C;strokeColor=none;dashed=0;verticalLabelPosition=bottom;verticalAlign=top;align=center;html=1;fontSize=12;fontStyle=0;aspect=fixed;pointerEvents=1;shape=mxgraph.aws4.organizations_account;direction=east;" vertex="1" parent="1">
          <mxGeometry x="832" y="600" width="74" height="78" as="geometry" />
        </mxCell>
        <mxCell id="FvPew6l_nvyuefZTjxA9-20" value="Workload-Dev" style="sketch=0;outlineConnect=0;fontColor=#232F3E;gradientColor=none;fillColor=#DD344C;strokeColor=none;dashed=0;verticalLabelPosition=bottom;verticalAlign=top;align=center;html=1;fontSize=12;fontStyle=0;aspect=fixed;pointerEvents=1;shape=mxgraph.aws4.organizations_account;" vertex="1" parent="1">
          <mxGeometry x="1005" y="570" width="74" height="78" as="geometry" />
        </mxCell>
        <mxCell id="FvPew6l_nvyuefZTjxA9-21" value="Workload-Discovery" style="sketch=0;outlineConnect=0;fontColor=#232F3E;gradientColor=none;fillColor=#DD344C;strokeColor=none;dashed=0;verticalLabelPosition=bottom;verticalAlign=top;align=center;html=1;fontSize=12;fontStyle=0;aspect=fixed;pointerEvents=1;shape=mxgraph.aws4.organizations_account;" vertex="1" parent="1">
          <mxGeometry x="1006" y="678" width="74" height="78" as="geometry" />
        </mxCell>
        <mxCell id="FvPew6l_nvyuefZTjxA9-26" value="OU" style="sketch=0;outlineConnect=0;fontColor=#232F3E;gradientColor=none;fillColor=#E7157B;strokeColor=none;dashed=0;verticalLabelPosition=bottom;verticalAlign=top;align=center;html=1;fontSize=12;fontStyle=0;aspect=fixed;pointerEvents=1;shape=mxgraph.aws4.organizations_organizational_unit2;" vertex="1" parent="1">
          <mxGeometry x="1010" y="91" width="50" height="50" as="geometry" />
        </mxCell>
        <mxCell id="FvPew6l_nvyuefZTjxA9-27" value="Account" style="sketch=0;outlineConnect=0;fontColor=#232F3E;gradientColor=none;fillColor=#DD344C;strokeColor=none;dashed=0;verticalLabelPosition=bottom;verticalAlign=top;align=center;html=1;fontSize=12;fontStyle=0;aspect=fixed;pointerEvents=1;shape=mxgraph.aws4.organizations_account;" vertex="1" parent="1">
          <mxGeometry x="1018" y="180" width="37.95" height="40" as="geometry" />
        </mxCell>
        <mxCell id="FvPew6l_nvyuefZTjxA9-31" value="Legends:" style="text;html=1;align=center;verticalAlign=middle;whiteSpace=wrap;rounded=0;" vertex="1" parent="1">
          <mxGeometry x="1006" y="60" width="60" height="30" as="geometry" />
        </mxCell>
        <mxCell id="FvPew6l_nvyuefZTjxA9-36" style="edgeStyle=orthogonalEdgeStyle;rounded=0;orthogonalLoop=1;jettySize=auto;html=1;" edge="1" parent="1">
          <mxGeometry relative="1" as="geometry">
            <mxPoint x="482" y="471" as="sourcePoint" />
            <mxPoint x="482" y="373" as="targetPoint" />
          </mxGeometry>
        </mxCell>
        <mxCell id="FvPew6l_nvyuefZTjxA9-41" value="" style="line;strokeWidth=2;html=1;" vertex="1" parent="1">
          <mxGeometry x="195" y="227" width="680" height="10" as="geometry" />
        </mxCell>
        <mxCell id="FvPew6l_nvyuefZTjxA9-42" value="" style="line;strokeWidth=2;html=1;direction=south;" vertex="1" parent="1">
          <mxGeometry x="190" y="230" width="10" height="48" as="geometry" />
        </mxCell>
        <mxCell id="FvPew6l_nvyuefZTjxA9-44" value="" style="line;strokeWidth=2;html=1;direction=south;" vertex="1" parent="1">
          <mxGeometry x="870" y="232" width="10" height="48" as="geometry" />
        </mxCell>
        <mxCell id="FvPew6l_nvyuefZTjxA9-45" value="" style="line;strokeWidth=2;html=1;" vertex="1" parent="1">
          <mxGeometry x="681" y="394" width="360" height="10" as="geometry" />
        </mxCell>
        <mxCell id="FvPew6l_nvyuefZTjxA9-46" value="" style="line;strokeWidth=2;html=1;direction=south;" vertex="1" parent="1">
          <mxGeometry x="677" y="400" width="10" height="24" as="geometry" />
        </mxCell>
        <mxCell id="FvPew6l_nvyuefZTjxA9-47" value="" style="line;strokeWidth=2;html=1;direction=south;" vertex="1" parent="1">
          <mxGeometry x="1035" y="400" width="10" height="28" as="geometry" />
        </mxCell>
        <mxCell id="FvPew6l_nvyuefZTjxA9-48" style="edgeStyle=orthogonalEdgeStyle;rounded=0;orthogonalLoop=1;jettySize=auto;html=1;" edge="1" parent="1">
          <mxGeometry relative="1" as="geometry">
            <mxPoint x="198" y="460" as="sourcePoint" />
            <mxPoint x="198" y="357" as="targetPoint" />
          </mxGeometry>
        </mxCell>
        <mxCell id="FvPew6l_nvyuefZTjxA9-51" style="edgeStyle=orthogonalEdgeStyle;rounded=0;orthogonalLoop=1;jettySize=auto;html=1;" edge="1" parent="1" source="FvPew6l_nvyuefZTjxA9-49" target="FvPew6l_nvyuefZTjxA9-5">
          <mxGeometry relative="1" as="geometry" />
        </mxCell>
        <mxCell id="FvPew6l_nvyuefZTjxA9-49" value="Management Account" style="sketch=0;outlineConnect=0;fontColor=#232F3E;gradientColor=none;fillColor=#DD344C;strokeColor=none;dashed=0;verticalLabelPosition=bottom;verticalAlign=top;align=center;html=1;fontSize=12;fontStyle=0;aspect=fixed;pointerEvents=1;shape=mxgraph.aws4.organizations_account;" vertex="1" parent="1">
          <mxGeometry x="610" y="99" width="37.95" height="40" as="geometry" />
        </mxCell>
        <mxCell id="FvPew6l_nvyuefZTjxA9-52" style="edgeStyle=orthogonalEdgeStyle;rounded=0;orthogonalLoop=1;jettySize=auto;html=1;" edge="1" parent="1">
          <mxGeometry relative="1" as="geometry">
            <mxPoint x="1039" y="534" as="sourcePoint" />
            <mxPoint x="1040" y="503" as="targetPoint" />
            <Array as="points">
              <mxPoint x="1039" y="540" />
              <mxPoint x="1040" y="540" />
            </Array>
          </mxGeometry>
        </mxCell>
      </root>
    </mxGraphModel>
  </diagram>
</mxfile>
